<svg width="284" height="65" viewBox="0 0 284 65" fill="none" xmlns="http://www.w3.org/2000/svg">
<path d="M35.8219 41.1758C35.3085 41.6803 34.7851 42.1725 34.2862 42.6903C33.1254 43.8957 31.987 45.1234 30.8263 46.3243C29.718 47.465 28.9133 47.552 27.7559 46.4571C26.3262 45.1044 25.0082 43.6334 23.6409 42.216C23.3954 41.9615 23.1521 41.7037 22.8909 41.4671C22.6298 41.2305 22.392 41.3064 22.3273 41.649C22.2694 41.9968 22.2432 42.349 22.2492 42.7015C22.2447 48.8028 22.2447 54.9041 22.2492 61.0053C22.2492 61.4149 22.2548 61.8245 22.238 62.233C22.1967 63.2632 21.6141 63.8848 20.5907 64.0009C20.4242 64.0182 20.2569 64.026 20.0896 64.0243C14.2859 64.0243 8.48226 64.0366 2.67861 64.0054C2.12931 63.9852 1.59313 63.832 1.11609 63.5589C0.291299 63.0991 0 62.3457 0 61.3647C0.0223217 41.6472 0.0305031 21.9319 0.0245506 2.21882C0.0245506 1.81815 0.0435238 1.38176 0.19866 1.02573C0.494423 0.348262 1.09153 0.0826334 1.82927 0.0848656C4.95431 0.0949104 8.07935 0.0848656 11.2044 0.0848656C14.3663 0.0848656 17.5281 0.116116 20.6911 0.0658921C21.6822 0.0502669 22.4043 0.378396 23.0048 1.12952C24.3619 2.82932 25.7381 4.51461 27.1053 6.2066C27.5026 6.69879 27.8921 7.19545 28.2872 7.68988C28.6823 8.1843 28.7415 8.20663 29.1377 7.68988C30.8118 5.51128 32.5161 3.34719 34.1522 1.13622C34.7226 0.338217 35.4056 -0.00442131 36.3967 4.30357e-05C42.7204 0.0268291 49.0442 0.01232 55.3702 0.0134361C56.8791 0.0134361 57.9171 1.04247 57.9461 2.56369C57.9572 3.17754 57.9461 3.79139 57.9461 4.40524V61.3736C57.9461 63.5511 57.4762 64.0232 55.2865 64.0232C49.7998 64.0232 44.3131 64.0232 38.8264 64.0232C38.207 64.0232 37.6199 63.9607 37.0809 63.5768C36.265 62.9942 35.9503 62.252 35.9503 61.2475C35.9815 54.9974 35.9659 48.7473 35.9659 42.4973V41.2216L35.8219 41.1758ZM14.0861 60.0544C14.0861 61.1593 14.0861 61.1605 15.1877 61.0422C15.2178 61.0422 15.2435 61.0009 15.3573 60.9127V59.0488H15.537V61.0288H16.8127C16.8127 59.8524 16.7536 60.9384 16.7536 59.8011H16.9667C16.9667 60.9495 17.0259 59.8714 17.0259 61.0165H19.3139V60.1906C19.3139 52.9554 19.3139 45.7194 19.3139 38.4827C19.3139 37.4693 19.7704 36.7996 20.565 36.62C21.3027 36.4525 22.6543 37.1378 23.0204 37.7639C23.2693 38.1936 23.6577 38.5452 23.9836 38.9258L24.1666 38.8588C24.1666 35.7628 21.8965 39.3231 21.8965 36.2271L22.1063 36.2148C22.1208 36.4179 22.1476 36.62 22.1487 36.8231C22.1487 39.6133 24.42 35.7472 24.4345 38.5374C24.4345 38.8622 24.4189 39.2818 24.6008 39.4961C25.3307 40.3544 26.1354 41.1502 26.9133 41.9682L27.0707 41.9258C27.0707 40.2673 26.6867 41.3421 26.6867 39.6836C26.7693 39.6836 27.3017 39.8555 27.3843 39.8521C27.3966 40.0396 27.5651 40.3466 27.5662 40.5341C27.5662 41.8555 27.4289 40.1524 27.343 41.466C27.2626 42.6412 28.0785 43.1468 28.7202 43.8276C28.8061 43.7821 28.8876 43.7287 28.9636 43.668C29.843 42.7607 30.6556 41.7707 31.6143 40.9604C32.7382 40.0084 33.2315 38.9068 32.9915 37.4615C32.9636 37.2907 33.0194 37.1054 33.0373 36.9269L33.2382 36.9358V39.1791C33.4926 38.9381 33.6255 38.8198 33.7493 38.6925C34.3688 38.0497 35.0049 37.4213 35.5931 36.7517C35.7898 36.5286 35.9074 36.247 35.9279 35.9503C35.9547 33.5329 36.2371 37.3744 36.2404 34.9559C36.2404 34.7606 36.2773 34.5641 36.2962 34.3688L36.5195 34.3833C36.5195 37.0988 36.2248 33.5529 36.2248 36.2684L36.4324 36.2807C36.4466 36.0913 36.4818 35.9042 36.5373 35.7226C36.6166 35.534 36.7471 35.2382 36.8833 35.2237C37.4146 35.1623 37.4324 34.8342 37.4146 34.4369C37.418 34.2872 37.4325 34.138 37.4581 33.9905H37.621C37.6496 34.1751 37.6649 34.3616 37.6668 34.5485C37.64 35.0016 37.8275 35.1858 38.2885 35.1601C38.8086 35.1311 39.3309 35.1411 39.851 35.1601L43.8588 35.3086C44.216 35.4525 44.1937 35.7036 44.1937 35.9849C44.1937 38.0497 44.1937 40.1144 44.1937 42.1792C44.1937 42.3778 44.1736 42.5754 44.1591 42.8488H42.0385L41.8544 42.8857H39.2985C39.1758 44.1971 38.9927 45.4527 38.9548 46.7094C38.8967 48.6067 38.9257 50.5041 38.9492 52.4014C38.9548 52.8657 39.082 53.3267 39.1467 53.7909C39.1509 53.8597 39.1418 53.9287 39.1199 53.9941C39.0619 54.234 38.9347 54.4773 38.9514 54.7117C39.0005 55.4171 39.1534 56.1169 39.1746 56.8222C39.2148 57.974 39.1847 59.1292 39.1858 60.2821C39.1858 61.118 39.1858 61.1181 40.0061 61.0868C40.0965 61.0868 40.1869 61.0656 40.2706 61.0544C40.3342 60.8547 40.3912 60.6794 40.447 60.5031L40.5508 60.5087C40.5965 60.6872 40.6434 60.8669 40.6925 61.0578H44.822V59.0488L45.0285 59.0566V61.0656H49.8533C51.3779 61.0656 52.9036 61.0489 54.4293 61.0756C54.8992 61.0835 55.08 60.9283 55.0152 60.4707C55.0091 60.3778 55.0091 60.2846 55.0152 60.1917C55.0152 41.5903 55.0152 22.9888 55.0152 4.38738C55.0152 4.12621 55.0041 3.86617 55.0152 3.60612C55.0275 3.17977 54.8802 2.95879 54.4014 2.96325C53.9226 2.96772 53.9114 3.24562 53.9025 3.58268C53.8947 3.86728 53.8713 4.15188 53.8556 4.4376L53.6492 4.43091C53.6358 4.14742 53.6012 3.86282 53.6157 3.58045C53.638 3.13401 53.4739 2.93312 53.0041 2.96437C52.2652 3.01459 51.523 3.05924 50.7831 3.05477C49.4549 3.04584 48.1268 2.9733 46.7986 2.97665C45.1903 2.97665 43.5832 3.05589 41.9749 3.057C40.5653 3.057 39.1545 3.01794 37.7449 2.96325C37.4391 2.93851 37.1321 2.99456 36.8547 3.1258C36.5774 3.25704 36.3394 3.45885 36.1646 3.71103C34.7962 5.52021 33.4034 7.31153 32.035 9.11847C31.8877 9.31155 31.8821 9.64973 31.7069 9.77696C30.7136 10.4924 30.1823 11.402 30.3096 12.6542C30.3308 12.8652 30.2716 13.0828 30.2504 13.2982L30.0919 13.2871C30.0629 12.7357 30.0328 12.1832 30.0037 11.6352C28.8408 11.6933 28.8397 11.6933 28.8352 12.7446L28.5752 12.1274C28.5651 11.9042 28.5004 11.5917 28.3519 11.4823C27.2035 10.6631 26.4992 9.45776 25.6086 8.41645C25.2637 8.01466 24.939 7.59613 24.6041 7.18876L24.42 7.22782L24.132 7.11621C24.1101 6.77259 23.9883 6.44286 23.7816 6.16754C23.1867 5.36061 22.5025 4.61729 21.9211 3.80032C21.4813 3.18201 20.9367 2.96325 20.2079 2.99785C19.0918 3.04919 17.9757 3.07709 16.8685 3.07486C15.1085 3.06928 13.3484 3.01571 11.5883 3.01124C10.4064 3.01124 9.22334 3.07933 8.0414 3.07821C6.77799 3.07821 5.5157 3.01794 4.2534 3.00901C3.13732 3.0012 2.9487 3.19317 2.9487 4.30256C2.9487 22.9605 2.9487 41.6178 2.9487 60.2743C2.9487 61.0254 2.97883 61.0634 3.72996 61.0656C6.09271 61.0656 8.45435 61.0656 10.8171 61.0656H12.2993C12.3752 60.8323 12.431 60.6582 12.5348 60.3424L12.7044 61.0343H13.8953M37.8911 36.5173C38.0318 36.7729 38.063 36.8856 38.1356 36.9525C38.8878 37.6546 39.0039 38.5541 38.9592 39.5106C38.9414 39.8823 38.9726 40.255 38.9592 40.6267C38.9336 41.1714 39.2092 41.4236 39.7204 41.4347C40.5195 41.4515 41.3175 41.4415 42.1166 41.4526C42.6033 41.4593 42.8276 41.2383 42.8242 40.7439C42.8142 39.5162 42.8108 38.2885 42.8242 37.0664C42.8242 36.6479 42.6445 36.5083 42.2539 36.5173C41.5485 36.5296 40.8421 36.5173 40.1334 36.5173H37.8911Z" fill="#4B21E2"/>
<path d="M40.4961 49.5498C40.5485 49.5498 40.5909 48.1762 40.5909 46.4817C40.5909 44.7872 40.5485 43.4136 40.4961 43.4136C40.4437 43.4136 40.4012 44.7872 40.4012 46.4817C40.4012 48.1762 40.4437 49.5498 40.4961 49.5498Z" fill="#4B21E2"/>
<path d="M53.8076 42.8511V47.1759H53.6681V42.8522L53.8076 42.8511Z" fill="#4B21E2"/>
<path d="M3.73665 57.5075V60.4596C3.42638 60.1727 3.40518 57.9461 3.73665 57.5075Z" fill="#4B21E2"/>
<path d="M41.217 39.8432C40.9876 39.8564 40.7576 39.8545 40.5284 39.8376C40.2583 39.7975 39.8007 39.7751 39.7616 39.6446C39.6411 39.2361 39.6567 38.7785 39.6735 38.3421C39.6735 38.2651 39.9268 38.1523 40.0741 38.1334C40.8431 38.0351 41.2181 38.3789 41.217 39.1512C41.2159 39.3532 41.217 39.5541 41.217 39.8432Z" fill="#4B21E2"/>
<path d="M99.6397 26.5104L101.838 64.156H93.1864L92.2512 48.7942L87.0368 64.156H78.3615L72.8435 48.1625L71.8145 64.156H63.0934L65.4372 26.5104H74.3659L82.6662 50.0599L90.7098 26.5104H99.6397Z" fill="#4B21E2"/>
<path d="M121.081 64.1549C119.221 64.1678 117.377 63.8104 115.657 63.1036C113.053 62.0381 110.822 60.2265 109.246 57.8967C107.669 55.5669 106.816 52.8228 106.795 50.0096V26.5104H115.4V49.8925C115.396 50.6311 115.544 51.3628 115.833 52.0424C116.123 52.722 116.548 53.3353 117.083 53.8445C118.154 54.8804 119.591 55.4515 121.081 55.4338C121.823 55.4326 122.557 55.2731 123.233 54.9662C123.903 54.6658 124.513 54.246 125.033 53.7273C125.545 53.2254 125.943 52.6195 126.201 51.9505C126.483 51.2518 126.626 50.5051 126.622 49.7518V26.3709H135.274V49.6123C135.319 51.5131 134.96 53.4017 134.222 55.1537C133.518 56.8523 132.495 58.4 131.208 59.7129C129.906 61.0195 128.374 62.0737 126.688 62.8223C124.956 63.5865 123.087 63.9923 121.194 64.0154L121.081 64.1549Z" fill="#4B21E2"/>
<path d="M171.778 26.5573V64.1549H162.426L150.098 42.3165V64.2487H141.42V26.8386H150.773L163.001 48.7228V26.7448L171.778 26.5573Z" fill="#4B21E2"/>
<path d="M196.417 64.1092C194.015 64.0936 191.637 63.6339 189.403 62.7531C187.08 61.8348 184.971 60.4485 183.207 58.6805C180.142 55.6001 178.234 51.5558 177.807 47.2313C177.379 42.9068 178.458 38.5674 180.861 34.9466C183.264 31.3258 186.844 28.6458 190.994 27.3597C195.145 26.0735 199.613 26.26 203.642 27.8877C205.975 28.8412 208.09 30.2569 209.861 32.0496L203.759 38.1523C202.807 37.1407 201.652 36.342 200.369 35.8086C199.148 35.3273 197.846 35.0811 196.534 35.0831C195.2 35.0731 193.877 35.3308 192.644 35.8409C191.411 36.351 190.293 37.1032 189.356 38.053C188.42 39.014 187.674 40.1432 187.158 41.3812C186.642 42.6186 186.379 43.9469 186.386 45.2875C186.38 46.6125 186.642 47.9251 187.158 49.1458C187.676 50.3734 188.422 51.492 189.356 52.4427C190.303 53.4486 191.449 54.2451 192.722 54.7809C193.934 55.269 195.228 55.5228 196.534 55.5287C197.848 55.5227 199.149 55.269 200.369 54.7809C201.656 54.2575 202.813 53.4595 203.759 52.4427L209.861 58.5924C208.098 60.3784 205.99 61.7865 203.666 62.7308C201.358 63.6443 198.898 64.1121 196.417 64.1092Z" fill="#4B21E2"/>
<path d="M241.662 26.5573V64.1549H232.987V49.9628H222.021V64.1549H213.37V26.5573H222.021V41.3109H232.87V26.5573H241.662Z" fill="#4B21E2"/>
<path d="M265.16 26.5104C267.674 26.4952 270.165 26.9966 272.478 27.9837C275.891 29.4126 278.806 31.8186 280.856 34.8992C282.906 37.9798 284 41.5977 284 45.2981C284 48.9985 282.906 52.6163 280.856 55.697C278.806 58.7776 275.891 61.1836 272.478 62.6125C270.164 63.5964 267.675 64.1036 265.16 64.1036C262.645 64.1036 260.156 63.5964 257.842 62.6125C255.61 61.6766 253.584 60.3114 251.878 58.5946C250.177 56.8767 248.814 54.8542 247.86 52.6325C246.889 50.3109 246.388 47.8193 246.388 45.3026C246.388 42.7858 246.889 40.2942 247.86 37.9726C248.819 35.7538 250.182 33.7322 251.878 32.0105C253.59 30.3015 255.615 28.9374 257.842 27.9926C260.154 27.0025 262.645 26.498 265.16 26.5104ZM265.16 55.4573C266.517 55.4582 267.861 55.1881 269.112 54.6626C270.314 54.1369 271.408 53.3916 272.337 52.465C273.26 51.5365 273.998 50.4412 274.513 49.2373C275.051 47.9986 275.322 46.6603 275.307 45.3098C275.32 43.9516 275.049 42.6056 274.513 41.3577C273.998 40.1543 273.26 39.0594 272.337 38.1311C271.414 37.2037 270.318 36.4652 269.112 35.957C267.86 35.4325 266.517 35.1623 265.16 35.1623C263.803 35.1623 262.459 35.4325 261.208 35.957C260.001 36.4655 258.905 37.2039 257.981 38.1311C257.059 39.0595 256.321 40.1544 255.807 41.3577C255.281 42.6091 255.011 43.9526 255.011 45.3098C255.009 46.6593 255.279 47.9953 255.807 49.2373C256.321 50.4412 257.059 51.5365 257.981 52.465C258.911 53.3917 260.005 54.1369 261.208 54.6626C262.466 55.191 263.818 55.4612 265.183 55.4573H265.16Z" fill="#4B21E2"/>
<path d="M47.6724 11.0214H42.9414V15.7525H47.6724V11.0214Z" fill="#4B21E2"/>
<path d="M41.784 37.5206H38.6288V40.6758H41.784V37.5206Z" fill="#4B21E2"/>
<path d="M18.1051 13.2201H10.4052V20.92H18.1051V13.2201Z" fill="#4B21E2"/>
<path d="M8.23114 44.8935H3.50005V49.6246H8.23114V44.8935Z" fill="#4B21E2"/>
</svg>
