<svg width="93" height="47" viewBox="0 0 93 47" fill="none" xmlns="http://www.w3.org/2000/svg">
<rect x="0.321411" width="7.28571" height="47" rx="1" fill="white"/>
<rect x="8.60718" y="13.4286" width="7.28571" height="33.5714" rx="1" fill="white"/>
<rect x="16.8928" y="13.4286" width="8.5" height="33.5714" rx="1" fill="white"/>
<rect x="26.3928" y="23.5" width="6.07143" height="23.5" rx="1" fill="white"/>
<rect x="33.4642" y="13.4286" width="6.07143" height="33.5714" rx="1" fill="white"/>
<rect x="40.5356" y="18.4642" width="6.07143" height="28.5357" rx="1" fill="white"/>
<rect x="47.6072" y="18.4642" width="6.07143" height="28.5357" rx="1" fill="white"/>
<rect x="54.6786" y="18.4642" width="6.07143" height="28.5357" rx="1" fill="white"/>
<rect x="61.75" y="38.6072" width="6.07143" height="8.39286" rx="1" fill="white"/>
<rect x="68.8214" y="33.5714" width="7.28571" height="13.4286" rx="1" fill="white"/>
<rect x="77.1072" y="33.5714" width="7.28571" height="13.4286" rx="1" fill="white"/>
<rect x="85.3928" y="28.5358" width="7.28571" height="18.4643" rx="1" fill="white"/>
</svg>
