<svg width="86" height="93" viewBox="0 0 86 93" fill="none" xmlns="http://www.w3.org/2000/svg">
<path d="M54.2382 56.7551L50.1684 60.9694C48.1477 63.0764 46.0984 65.1555 44.0777 67.2344C43.9076 67.4779 43.6802 67.6768 43.4149 67.8143C43.1498 67.9517 42.8547 68.0236 42.5551 68.0236C42.2555 68.0236 41.9605 67.9517 41.6954 67.8143C41.4301 67.6768 41.2026 67.4779 41.0326 67.2344L31.9536 57.8227L31.3275 57.1766V90.8342C31.3692 91.1522 31.3255 91.4753 31.2005 91.7712C31.0757 92.067 30.874 92.3252 30.6161 92.5198C30.2998 92.6871 29.9657 92.8189 29.6199 92.9133C29.5065 92.9274 29.3918 92.9274 29.2784 92.9133H1.95635C1.53517 92.9574 1.11155 92.8555 0.758336 92.6248C0.405121 92.394 0.144392 92.0489 0.0210295 91.649C-0.00700982 91.3875 -0.00700982 91.1238 0.0210295 90.8624V2.05439C0.00443602 1.78079 0.0468196 1.50682 0.145361 1.25057C0.243902 0.994315 0.396368 0.761611 0.592704 0.567797C0.789039 0.373983 1.02478 0.223464 1.28437 0.126189C1.54395 0.028914 1.82148 -0.0129148 2.09865 0.0034645H31.0715C31.4602 -0.00952369 31.8461 0.0736322 32.194 0.245366C32.5419 0.417099 32.8408 0.671969 33.0635 0.986792C36.1089 4.7796 39.2111 8.5724 42.2848 12.2247L42.5694 12.5338L47.3508 6.54957L51.7053 0.9306C51.9012 0.650584 52.1658 0.423954 52.4744 0.271709C52.7827 0.119465 53.125 0.0465265 53.4697 0.0596557H83.2109C83.4648 0.0520283 83.7174 0.0952912 83.954 0.186828C84.1903 0.278364 84.4055 0.416274 84.5865 0.592221C84.7673 0.768169 84.9101 0.978506 85.0063 1.21051C85.1026 1.44251 85.1502 1.69136 85.1461 1.94202V90.6375C85.1461 90.9185 85.1461 91.1995 85.1461 91.4805C85.0928 91.8883 84.8948 92.2643 84.5875 92.5419C84.2803 92.8196 83.8833 92.981 83.4671 92.9974H56.1165C55.7167 93.0189 55.3214 92.9053 54.9955 92.6756C54.6698 92.4458 54.4328 92.1135 54.3235 91.7332C54.2804 91.4351 54.2804 91.1324 54.3235 90.8342V56.7551H54.2382ZM19.1465 90.8342V85.6085H20.7118V90.8342H25.8631V90.4409H27.3145C27.3145 90.9746 27.7131 90.8905 28.083 90.778V83.361H28.9085V71.8139H28.1114V70.3531H28.9085V67.7964H28.3108V58.7499H29.1076V56.1932H28.3108V54.676C28.5096 54.6903 28.7094 54.6903 28.9085 54.676C29.3129 54.7494 29.7277 54.7494 30.1321 54.676C30.6813 54.4537 31.2822 54.3856 31.8683 54.4794L32.6652 55.519C32.6509 55.285 32.6509 55.0505 32.6652 54.8165C32.6652 54.8165 32.8359 54.5357 32.9212 54.5357H34.2021C34.2021 55.3504 34.2021 56.0809 34.2021 56.8112C34.199 57.1341 34.3213 57.4456 34.5436 57.6822C36.1373 59.2837 37.6742 60.9131 39.2679 62.5146C39.7233 63.0203 40.0934 63.6945 41.0041 63.4979C40.9325 63.7885 40.9675 64.0947 41.103 64.3622C41.2385 64.6296 41.4656 64.841 41.744 64.9589V63.835H43.2809V64.9589C43.5392 64.8344 43.749 64.6293 43.8775 64.3754C44.0062 64.1215 44.0466 63.8328 43.9924 63.554C44.3339 63.554 44.7038 63.554 44.8462 63.3855C45.5577 62.7113 46.4685 62.1493 46.2407 60.9412C46.1839 60.3057 46.1839 59.6663 46.2407 59.0308H47.8346V60.3794L49.4284 58.7499H48.6031V57.2608H50.1398V58.1037L53.9251 53.9457H53.1282V52.4566H54.6367C54.6367 52.7656 54.6367 53.0466 54.6367 53.3276C54.6367 53.6086 54.4373 53.9457 55.0066 53.9738V52.0632H64.3985V49.8719H65.9639C65.9639 50.4619 65.9639 51.0519 65.9639 51.6138C65.9639 51.6138 65.9639 51.979 65.9639 52.0071C65.9639 52.0351 66.2484 52.3722 66.2484 52.5971V63.2169H63.6302V69.8755H62.0647V63.245H59.2187V67.6278H57.6534V63.245H56.9704V65.5488C56.5151 65.5488 56.4866 65.7455 56.5151 66.0546C56.5435 66.3636 56.5151 67.1222 56.5151 67.6559C56.5151 68.1898 56.5151 68.2459 56.9704 68.2179V69.6787C56.4866 69.6787 56.5435 69.9316 56.5435 70.2407V87.8281C56.5282 87.9588 56.5282 88.0907 56.5435 88.2213H56.9418V89.6824C56.458 89.6824 56.3727 90.1319 56.6003 90.8342H68.9522V90.1319H70.4607V90.8342H71.1437V83.361H72.709V90.8342H73.3351V90.469H74.872C74.872 91.059 75.2135 90.8342 75.5265 90.8624V90.4409H76.9781V90.8342H77.6327V90.1319H79.5395V90.8342H82.841C82.8541 90.694 82.8541 90.553 82.841 90.4129C82.841 86.7324 82.841 83.052 82.841 79.3716C82.7929 79.1522 82.7062 78.943 82.5848 78.7535H82.3856V74.7358C82.3547 74.6352 82.3547 74.5275 82.3856 74.4267C82.784 74.4267 82.6701 74.1177 82.6701 73.893C82.6701 71.8983 82.6701 69.8755 82.6701 67.8525C82.6701 67.5435 82.6701 67.2907 82.2717 67.2907V65.9702C82.4425 65.7736 82.6416 65.6612 82.6416 65.5488C82.6416 64.6779 82.6416 63.8069 82.6416 62.9359L82.3856 62.7393V61.2785C82.7555 61.2785 82.8124 61.0536 82.8124 60.7446C82.8124 60.4355 82.8124 59.4523 82.8124 58.7779C82.7749 58.5688 82.6977 58.3687 82.5848 58.1879H82.3856C82.3711 58.1042 82.3711 58.0188 82.3856 57.9352C82.3856 57.4856 82.0725 56.9237 82.7555 56.6427C82.7555 56.6427 82.7555 56.5022 82.7555 56.4461V54.4513V54.1984C82.7555 54.1984 82.4425 53.8613 82.4425 53.6366V45.8824C82.4425 45.6014 82.4425 45.2924 82.841 45.3487C82.841 44.7586 82.841 44.1967 82.841 43.663C82.7808 43.4297 82.695 43.2035 82.5848 42.9886H82.3856V27.5364C82.8408 27.5364 82.784 27.2556 82.784 26.9465V11.8876C82.784 11.7471 82.4993 11.6347 82.4709 11.4943C82.4709 10.8762 82.4709 10.23 82.4709 9.61191H82.8694V2.75677L82.3286 2.13869H61.4386V2.84106H59.9019V2.13869H59.2472V2.84106H57.7387V2.11059H53.8397C53.764 2.1257 53.692 2.15591 53.6284 2.19938C53.5648 2.24286 53.5108 2.29869 53.4697 2.36343L50.0261 6.80243L49.6275 7.30814H50.2537V11.719H48.6884V8.5443L47.6923 9.80858C48.3184 10.3143 47.8915 10.9043 48.0622 11.4662H47.0092C46.8401 11.4578 46.671 11.4849 46.5134 11.5459C46.3556 11.6068 46.2128 11.7002 46.0945 11.8197C45.9761 11.9393 45.8848 12.0823 45.8266 12.2393C45.7684 12.3963 45.7446 12.5637 45.7569 12.7305V18.3493H44.1916V14.4723C43.4802 14.7533 43.4232 15.3152 43.4802 15.9333H41.9147C42.1425 15.259 41.6303 14.95 41.3172 14.5004C41.0041 14.0509 40.2641 14.1633 39.6664 14.0228C39.6523 13.7702 39.6523 13.5169 39.6664 13.2642C39.6833 13.0447 39.654 12.8242 39.5805 12.6163C39.5071 12.4084 39.3909 12.2178 39.2395 12.0562C36.7634 9.05001 34.3158 6.04388 31.8968 3.00963C31.8014 2.85109 31.6626 2.72223 31.4966 2.63778C31.3305 2.55332 31.1436 2.51667 30.9576 2.532C30.8558 2.56425 30.7463 2.56425 30.6445 2.532C30.6445 2.05439 30.1891 2.27916 29.8761 2.27916V5.08864H28.3108V2.27916H27.656V2.89724H26.1478V2.27916H25.4646V5.08864H23.8993V2.27916H21.0533V5.08864H19.488V2.27916C19.2602 2.27916 19.0042 2.27916 18.9472 2.27916C18.5773 2.81296 18.008 2.47582 17.5526 2.56012C17.0972 2.64439 17.2966 2.56012 17.2966 2.56012C17.2966 2.11059 16.8696 2.27916 16.6134 2.27916H2.58247C2.58247 2.64439 2.41171 2.98153 2.98092 3.03771C3.00937 3.40242 3.00937 3.76871 2.98092 4.13342C2.98092 4.52674 3.26554 5.03246 2.63941 5.25721C2.63941 5.25721 2.63941 5.25721 2.63941 5.48197V11.9157C2.63941 11.9157 2.6394 12.1966 2.7817 12.1966C2.92399 12.1966 3.06629 12.4495 3.06629 12.6462C3.06629 12.8428 3.06629 13.2362 3.06629 13.5171C3.06629 13.7981 3.06629 13.7419 3.06629 13.7419C3.06629 13.7419 2.75323 14.079 2.75323 14.3319V15.7366C2.75323 15.9895 2.75323 16.3547 3.09476 16.439C3.09476 16.439 3.09476 16.6356 3.09476 16.7761C3.09476 16.9166 3.09476 17.928 3.09476 18.4898V22.9851H2.92401C2.92401 23.1537 2.66784 23.3503 2.66784 23.5188V29.3345C2.73363 29.5479 2.81939 29.7548 2.92401 29.9526V34.2511H2.52556V35.9648C2.52556 36.2458 2.52556 36.5268 2.92401 36.4987V40.8253C2.55402 40.8253 2.52556 41.0782 2.52556 41.3873V47.4839C2.52556 47.7647 2.52556 47.9895 2.92401 48.0176V49.4786C2.46863 49.4786 2.52556 49.6752 2.52556 49.9282V56.0809C2.52556 56.3899 2.52556 56.5866 2.92401 56.5866V58.7218H2.52556V62.9922C2.52556 63.3013 2.52554 63.526 2.95246 63.4979C2.96716 63.7599 2.96716 64.0225 2.95246 64.2845C2.95246 64.5655 3.18015 65.015 2.61093 65.0712C2.59033 65.1447 2.59033 65.2224 2.61093 65.296V67.5435C2.81016 67.5435 3.00938 67.7403 3.00938 67.8525C3.00938 68.4988 3.00938 69.145 3.00938 69.7631C2.90214 69.9099 2.81594 70.0706 2.75323 70.2407C2.75323 70.7463 2.75323 71.2521 2.75323 71.7578C2.75323 72.2635 2.75323 72.0668 2.75323 72.0668C2.75323 72.0668 3.03785 72.404 3.03785 72.6288C3.08063 73.0116 3.08063 73.3978 3.03785 73.7806C2.99355 74.0236 2.917 74.2597 2.81016 74.483V76.7868C2.98092 76.7868 3.20859 77.0678 3.18015 77.1801C3.15168 77.2925 3.52167 78.2477 2.7817 78.5286V80.411C2.7817 80.6639 2.78169 81.029 3.12322 81.029C3.14268 81.1122 3.14268 81.1987 3.12322 81.2819C3.12322 83.3891 3.12322 85.4963 3.12322 87.5471C3.12322 87.5471 2.75323 87.8 2.75323 87.8842C2.75323 88.8114 2.75323 89.7666 2.75323 90.6937H3.83473V89.9914H5.31467V90.6937H5.54236V83.361H7.1077V90.8342H9.5553C9.86836 90.8342 10.096 90.8342 10.096 90.4129H11.576V90.8061H12.1736V90.1038H13.682V90.8061L19.1465 90.8342ZM64.6831 53.7489H56.7711V61.6156H64.7685L64.6831 53.7489ZM42.541 65.5488L42.9678 65.0992H42.057L42.541 65.5488Z" fill="#4B21E2"/>
<path d="M25.4647 72.1233H9.72607V56.5588H25.4647V72.1233ZM12.0029 69.8476H23.1878V58.8063H12.0029V69.8476Z" fill="#4B21E2"/>
<path d="M25.4647 7.39233V22.9569H9.72607V7.39233H25.4647ZM23.1878 20.7094V9.66803H12.0029V20.597L23.1878 20.7094Z" fill="#4B21E2"/>
<path d="M59.6172 7.39233H75.3557V22.9849H59.6172V7.39233ZM61.9225 9.66803V20.597H73.079V9.66803H61.9225Z" fill="#4B21E2"/>
<path d="M21.4229 27.5078H22.9311V45.2919H21.4229V27.5078Z" fill="#4B21E2"/>
<path d="M7.07985 18.5743V36.3865H5.54297V18.5743H7.07985Z" fill="#4B21E2"/>
<path d="M11.6046 54.3112H10.0962V38.6904H11.6046V54.3112Z" fill="#4B21E2"/>
<path d="M32.7218 36.4424H34.2301V52.0351H33.0063C32.6648 52.0351 32.7218 51.8102 32.7218 51.6136V36.4424Z" fill="#4B21E2"/>
<path d="M79.5393 16.2711H78.0879V2.9541H79.5393V16.2711Z" fill="#4B21E2"/>
<path d="M22.9311 87.7438H21.4229V76.7869H22.9311V87.7438Z" fill="#4B21E2"/>
<path d="M44.0496 45.377H45.558V56.6149H44.0496V45.377Z" fill="#4B21E2"/>
<path d="M44.0776 27.5078H45.5575V38.7459H44.0776V27.5078Z" fill="#4B21E2"/>
<path d="M36.5077 38.6059H34.9993V29.756H36.5077V38.6059Z" fill="#4B21E2"/>
<path d="M37.2754 23.0137H38.7838V31.8354H37.2754V23.0137Z" fill="#4B21E2"/>
<path d="M61.4105 34.1387H59.9021V25.2888H61.4105V34.1387Z" fill="#4B21E2"/>
<path d="M16.1582 25.2888V34.1387H14.6213V25.2888H16.1582Z" fill="#4B21E2"/>
<path d="M64.4265 81.1134H65.9348V89.9632H64.4265V81.1134Z" fill="#4B21E2"/>
<path d="M28.3108 43.0731H29.7908V51.9511H28.3108V43.0731Z" fill="#4B21E2"/>
<path d="M66.704 63.2734H68.1554V72.1232H66.6755L66.704 63.2734Z" fill="#4B21E2"/>
<path d="M78.031 34.1953H79.5393V43.0733H78.0594L78.031 34.1953Z" fill="#4B21E2"/>
<path d="M79.5389 58.722H78.0591V49.8721H79.5389V58.722Z" fill="#4B21E2"/>
<path d="M25.1801 89.9914H23.6716V83.3611H25.1801V89.9914Z" fill="#4B21E2"/>
<path d="M72.709 56.4744H71.2007V49.8721H72.709V56.4744Z" fill="#4B21E2"/>
<path d="M61.4105 72.123H59.9021V65.549H61.4105V72.123Z" fill="#4B21E2"/>
<path d="M50.1116 31.835H48.5747V25.2888H50.1116V31.835Z" fill="#4B21E2"/>
<path d="M34.999 9.6123H36.5075V16.2427H34.999V9.6123Z" fill="#4B21E2"/>
<path d="M68.9807 43.0731H70.4606V49.7035H68.9807V43.0731Z" fill="#4B21E2"/>
<path d="M50.8511 7.39233H52.3595V14.0227H50.8511V7.39233Z" fill="#4B21E2"/>
<path d="M39.6943 27.5078H41.1742V34.1383H39.6943V27.5078Z" fill="#4B21E2"/>
<path d="M31.954 20.7371H30.4741V14.1348H31.954V20.7371Z" fill="#4B21E2"/>
<path d="M70.4608 67.6557H68.9524V61.0254H70.4608V67.6557Z" fill="#4B21E2"/>
<path d="M56.771 43.0727H55.291V36.4424H56.771V43.0727Z" fill="#4B21E2"/>
<path d="M18.4065 25.2888V31.835H16.9265V25.2888H18.4065Z" fill="#4B21E2"/>
<path d="M68.9524 52.0918H70.4608V58.7221H68.9524V52.0918Z" fill="#4B21E2"/>
<path d="M53.1279 23.041H54.6078V29.6433H53.1279V23.041Z" fill="#4B21E2"/>
<path d="M81.7589 76.5902H80.2791V69.9598H81.7589V76.5902Z" fill="#4B21E2"/>
<path d="M28.311 34.1953H29.7911V40.8257H28.311V34.1953Z" fill="#4B21E2"/>
<path d="M41.0329 52.0073H39.5244V45.377H41.0329V52.0073Z" fill="#4B21E2"/>
<path d="M80.2791 45.377H81.7589V52.0073H80.2791V45.377Z" fill="#4B21E2"/>
<path d="M81.7873 5.17285V11.8032H80.2791V5.17285H81.7873Z" fill="#4B21E2"/>
<path d="M65.9348 65.549V72.1793H64.4265V65.549H65.9348Z" fill="#4B21E2"/>
<path d="M66.704 81.1134H68.1554V87.7437H66.6755L66.704 81.1134Z" fill="#4B21E2"/>
<path d="M79.5389 31.8348H78.0591V25.2888H79.5389V31.8348Z" fill="#4B21E2"/>
<path d="M37.2754 54.3107H38.7554V58.7216H37.2754V54.3107Z" fill="#4B21E2"/>
<path d="M61.4105 85.5524H59.9021V81.1416H61.4105V85.5524Z" fill="#4B21E2"/>
<path d="M27.4572 76.7869V81.1696H25.9487V76.7869H27.4572Z" fill="#4B21E2"/>
<path d="M46.3267 40.9102H47.8351V45.2929H46.3267V40.9102Z" fill="#4B21E2"/>
<path d="M62.1504 36.4424H63.6587V40.8251H62.1504V36.4424Z" fill="#4B21E2"/>
<path d="M61.4105 40.8251H59.9021V36.4424H61.4105V40.8251Z" fill="#4B21E2"/>
<path d="M38.7838 40.8251H37.2754V36.4423H38.7838V40.8251Z" fill="#4B21E2"/>
<path d="M11.6331 25.2888V29.6435H10.0962V25.2888H11.6331Z" fill="#4B21E2"/>
<path d="M27.4572 87.7432H25.9487V83.3604H27.4572V87.7432Z" fill="#4B21E2"/>
<path d="M61.4105 74.4268V78.8095H59.9021V74.4268H61.4105Z" fill="#4B21E2"/>
<path d="M71.2288 65.549H72.7088V69.9317H71.2288V65.549Z" fill="#4B21E2"/>
<path d="M47.8351 27.4237H46.3267V23.041H47.8351V27.4237Z" fill="#4B21E2"/>
<path d="M73.4778 52.0918H74.9862V56.4464H73.4778V52.0918Z" fill="#4B21E2"/>
<path d="M50.8511 29.756H52.3595V34.1387H50.8511V29.756Z" fill="#4B21E2"/>
<path d="M14.6213 43.0731H16.1297V47.4839H14.6213V43.0731Z" fill="#4B21E2"/>
<path d="M19.1748 38.6055V34.2227H20.6547V38.6055H19.1748Z" fill="#4B21E2"/>
<path d="M66.704 31.9755H68.1554V36.3864H66.6755L66.704 31.9755Z" fill="#4B21E2"/>
<path d="M4.83042 54.3107V58.7216H3.32202V54.3107H4.83042Z" fill="#4B21E2"/>
<path d="M81.7589 25.2049H80.2791V20.7939H81.7589V25.2049Z" fill="#4B21E2"/>
<path d="M78.0029 67.7129H79.5398V72.1237H78.0598L78.0029 67.7129Z" fill="#4B21E2"/>
<path d="M30.502 29.7275H31.9818V34.1383H30.502V29.7275Z" fill="#4B21E2"/>
<path d="M68.9524 81.1134H70.4324V85.5242H68.9524V81.1134Z" fill="#4B21E2"/>
<path d="M55.3765 45.377H56.771V49.7877H55.291L55.3765 45.377Z" fill="#4B21E2"/>
<path d="M43.2804 45.377V49.7877H41.8005V45.377H43.2804Z" fill="#4B21E2"/>
<path d="M16.9265 49.7877V45.377H18.4065V49.7877H16.9265Z" fill="#4B21E2"/>
<path d="M68.1554 54.3107V58.6935H66.6755V54.3107H68.1554Z" fill="#4B21E2"/>
<path d="M18.3781 43.0724H16.9265V38.7178H18.4065L18.3781 43.0724Z" fill="#4B21E2"/>
<path d="M3.32202 25.2888H4.80194V29.6435H3.32202V25.2888Z" fill="#4B21E2"/>
<path d="M19.1746 49.8436H20.6544V54.3109H19.1746V49.8436Z" fill="#4B21E2"/>
<path d="M18.3781 78.8095H16.9265V74.4548H18.4065L18.3781 78.8095Z" fill="#4B21E2"/>
<path d="M55.3765 14.1073H56.771V18.49H55.291L55.3765 14.1073Z" fill="#4B21E2"/>
<path d="M54.6078 18.49H53.1279V14.1073H54.6078V18.49Z" fill="#4B21E2"/>
<path d="M29.7338 11.8877V16.2424H28.3108V11.8877H29.7338Z" fill="#4B21E2"/>
<path d="M4.80255 45.3209H3.35107V40.9102H4.80255V45.3209Z" fill="#4B21E2"/>
<path d="M56.771 31.8346H55.291V27.5361H56.771V31.8346Z" fill="#4B21E2"/>
<path d="M52.3311 40.8255H50.8511V36.4708H52.3311V40.8255Z" fill="#4B21E2"/>
<path d="M16.1294 89.9915H14.6494V85.6086H16.1294V89.9915Z" fill="#4B21E2"/>
<path d="M65.9069 29.6435H64.4553V25.2888H65.9069V29.6435Z" fill="#4B21E2"/>
<path d="M80.2791 85.6086H81.7589V89.9634H80.2791V85.6086Z" fill="#4B21E2"/>
<path d="M43.2804 27.5078V31.8346H41.8005V27.5078H43.2804Z" fill="#4B21E2"/>
<path d="M13.8807 81.0571H12.3723V78.8938H13.8807V81.0571Z" fill="#4B21E2"/>
<path d="M13.881 5.08931H12.3726V2.9541H13.881V5.08931Z" fill="#4B21E2"/>
<path d="M12.3723 76.562V74.4548H13.8807V76.562H12.3723Z" fill="#4B21E2"/>
<path d="M57.625 78.7816V76.7869H59.1334V78.8939L57.625 78.7816Z" fill="#4B21E2"/>
<path d="M73.4768 76.7869H74.9853V78.9221H73.4768V76.7869Z" fill="#4B21E2"/>
<path d="M74.9853 2.9541V5.08931H73.4768V2.9541H74.9853Z" fill="#4B21E2"/>
<path d="M4.80194 69.9034H3.32202V67.712H4.80194V69.9034Z" fill="#4B21E2"/>
<path d="M4.83042 72.2072V74.3424H3.32202V72.2072H4.83042Z" fill="#4B21E2"/>
<path d="M56.7708 25.2043H55.3193V23.041H56.7708V25.2043Z" fill="#4B21E2"/>
<path d="M43.2804 23.041V25.2043H41.8005V23.041H43.2804Z" fill="#4B21E2"/>
<path d="M32.7502 18.5743H34.2587V20.5971H32.7502V18.5743Z" fill="#4B21E2"/>
<path d="M4.80194 20.7374H3.32202V18.5741H4.80194V20.7374Z" fill="#4B21E2"/>
<path d="M4.83042 83.3611V85.5244H3.32202V83.3611H4.83042Z" fill="#4B21E2"/>
<path d="M4.83042 7.39233V9.55565H3.32202V7.39233H4.83042Z" fill="#4B21E2"/>
<path d="M7.84717 74.4268H9.35557V76.562H7.84717V74.4268Z" fill="#4B21E2"/>
<path d="M14.6494 74.4268H16.1294V76.5618H14.6494V74.4268Z" fill="#4B21E2"/>
<path d="M4.80194 2.9541V5.08931H3.32202V2.9541H4.80194Z" fill="#4B21E2"/>
<path d="M19.1748 27.5078H20.6547V29.643H19.1748V27.5078Z" fill="#4B21E2"/>
<path d="M9.35557 5.08931H7.84717V2.9541H9.35557V5.08931Z" fill="#4B21E2"/>
<path d="M70.4607 2.9541V5.06123H68.9807V2.9541H70.4607Z" fill="#4B21E2"/>
<path d="M66.704 2.9541H68.1554V5.08931H66.6755L66.704 2.9541Z" fill="#4B21E2"/>
<path d="M78.031 74.4268H79.5393V76.5618H78.0879L78.031 74.4268Z" fill="#4B21E2"/>
<path d="M72.7372 42.736H71.2288V41.2471H72.7372V42.736Z" fill="#4B21E2"/>
<path d="M74.9853 27.8456V29.3347H73.4768V27.8456H74.9853Z" fill="#4B21E2"/>
<path d="M12.3442 31.5538V30.0928H13.8811V31.5538H12.3442Z" fill="#4B21E2"/>
<path d="M74.9853 87.4351H73.4768V85.918H74.9853V87.4351Z" fill="#4B21E2"/>
<path d="M46.3267 30.0645H47.8351V31.5534H46.3267V30.0645Z" fill="#4B21E2"/>
<path d="M63.6871 87.4342H62.1504V85.9453H63.6871V87.4342Z" fill="#4B21E2"/>
<path d="M63.6871 30.0654V31.5543H62.1504V30.0654H63.6871Z" fill="#4B21E2"/>
<path d="M59.1334 27.8456V29.3345H57.625V27.8456H59.1334Z" fill="#4B21E2"/>
<path d="M25.9487 27.8456H27.4572V29.3345H25.9487V27.8456Z" fill="#4B21E2"/>
<path d="M75.0147 61.3626V62.7392H73.4778V61.2782L75.0147 61.3626Z" fill="#4B21E2"/>
<path d="M63.6869 25.5979V27.115H62.1785V25.5979H63.6869Z" fill="#4B21E2"/>
<path d="M36.5361 25.5979V27.087H34.9993V25.5979H36.5361Z" fill="#4B21E2"/>
<path d="M47.8351 18.1812H46.3267V16.6641H47.8351V18.1812Z" fill="#4B21E2"/>
<path d="M50.0832 40.516H48.5747V39.0271H50.0832V40.516Z" fill="#4B21E2"/>
<path d="M50.1116 52.4285V53.9174H48.5747V52.4285H50.1116Z" fill="#4B21E2"/>
<path d="M27.4572 53.9174H25.9487V52.4285H27.4572V53.9174Z" fill="#4B21E2"/>
<path d="M21.4229 53.9175V52.4004H22.9313V53.9175H21.4229Z" fill="#4B21E2"/>
<path d="M50.0832 15.9616H48.5747V14.4445H50.0832V15.9616Z" fill="#4B21E2"/>
<path d="M38.7842 15.9332H37.2473V14.4442H38.7842V15.9332Z" fill="#4B21E2"/>
<path d="M48.5747 47.9619H50.0832V49.4228H48.5747V47.9619Z" fill="#4B21E2"/>
<path d="M65.9064 42.7361H64.4265V41.2471H65.9064V42.7361Z" fill="#4B21E2"/>
<path d="M68.9524 40.5162V38.999H70.4608V40.5162H68.9524Z" fill="#4B21E2"/>
<path d="M68.1554 39.0275V40.5164H66.6755V39.0275H68.1554Z" fill="#4B21E2"/>
<path d="M14.6494 52.4004H16.1294V53.9175H14.6494V52.4004Z" fill="#4B21E2"/>
<path d="M46.2979 49.422V47.9893H47.8347V49.422H46.2979Z" fill="#4B21E2"/>
<path d="M21.4229 47.9619H22.9313V49.4228H21.4229V47.9619Z" fill="#4B21E2"/>
<path d="M41.8296 52.4004H43.281V53.9175H41.8296V52.4004Z" fill="#4B21E2"/>
<path d="M11.6327 83.7263V85.2152H10.1243V83.7544L11.6327 83.7263Z" fill="#4B21E2"/>
<path d="M50.8511 53.9449V52.4277H52.3881C52.3881 52.8492 52.3881 53.2707 52.3881 53.6921C52.3881 54.1134 52.2172 53.9168 52.1035 53.9168C51.6873 53.956 51.2688 53.9653 50.8511 53.9449Z" fill="#4B21E2"/>
<path d="M12.3723 83.6982H13.8807V85.2154H12.3723V83.6982Z" fill="#4B21E2"/>
<path d="M5.54297 38.999H7.0229V40.4879H5.54297V38.999Z" fill="#4B21E2"/>
<path d="M41.8005 42.736V41.2471H43.2804V42.736H41.8005Z" fill="#4B21E2"/>
<path d="M73.4487 82.9397V81.4786H74.9856V82.9397H73.4487Z" fill="#4B21E2"/>
<path d="M47.8347 56.1647C47.3793 56.1647 46.9524 56.1647 46.5541 56.1647C46.4873 56.1404 46.4284 56.0991 46.3833 56.0446C46.3382 55.9903 46.3088 55.9251 46.2979 55.8557C46.2979 55.4905 46.2979 55.0971 46.2979 54.6758H47.8347V56.1647Z" fill="#4B21E2"/>
<path d="M74.9862 45.8828V47.3438H73.4778V45.8828H74.9862Z" fill="#4B21E2"/>
<path d="M57.625 38.2682V36.7793H59.1334V38.2682H57.625Z" fill="#4B21E2"/>
<path d="M50.8511 18.2093V16.6641H52.3881C52.3881 17.1136 52.3881 17.5351 52.3881 17.9283C52.3716 17.9937 52.3356 18.0527 52.285 18.0978C52.2342 18.1428 52.1709 18.1719 52.1035 18.1812L50.8511 18.2093Z" fill="#4B21E2"/>
<path d="M46.2976 38.2687V38.0439C46.2976 36.6672 46.2976 36.5548 47.8345 36.8077V38.2687H46.2976Z" fill="#4B21E2"/>
<path d="M34.999 18.9111H36.5075V20.4002H34.999V18.9111Z" fill="#4B21E2"/>
<path d="M59.1331 85.2157H57.6531V83.7549H59.1331V85.2157Z" fill="#4B21E2"/>
<path d="M72.709 60.6046H71.2007V59.1436H72.709V60.6046Z" fill="#4B21E2"/>
<path d="M68.1554 76.9835V78.4724H66.6755V76.9835H68.1554Z" fill="#4B21E2"/>
<path d="M63.6869 45.8828V47.3438H62.1785V45.8828H63.6869Z" fill="#4B21E2"/>
<path d="M5.54199 61.3633H7.02193V62.7399H5.54199V61.3633Z" fill="#4B21E2"/>
<path d="M61.4105 45.8828V47.3438H59.9021V45.8828H61.4105Z" fill="#4B21E2"/>
<path d="M79.5389 62.7392H78.0591V61.2501H79.5389V62.7392Z" fill="#4B21E2"/>
<path d="M66.7036 27.1151V25.626H68.155V27.1151H66.7036Z" fill="#4B21E2"/>
<path d="M5.54199 65.0712V63.5822H7.02193V65.0712H5.54199Z" fill="#4B21E2"/>
<path d="M70.4605 25.5693V27.1147H68.9236C68.9236 26.6652 68.9236 26.2437 68.9236 25.8503C68.9327 25.7909 68.9589 25.7354 68.9993 25.6904C69.0397 25.6456 69.0926 25.6132 69.1514 25.5976L70.4605 25.5693Z" fill="#4B21E2"/>
<path d="M48.5747 34.6444H50.0832V36.1053H48.5747V34.6444Z" fill="#4B21E2"/>
<path d="M59.1331 47.2033H57.6531V45.8828H59.1331V47.2033Z" fill="#4B21E2"/>
<path d="M27.4572 34.6444V36.1053H25.9487V34.6444H27.4572Z" fill="#4B21E2"/>
<path d="M72.7372 33.8015H71.2288V32.3407H72.7372V33.8015Z" fill="#4B21E2"/>
<path d="M19.1746 76.253V74.7639H20.6544V76.253H19.1746Z" fill="#4B21E2"/>
<path d="M59.1331 33.8015H57.6531V32.3407H59.1331V33.8015Z" fill="#4B21E2"/>
<path d="M28.311 29.3346V27.8457H29.7911V29.3346H28.311Z" fill="#4B21E2"/>
<path d="M9.35557 85.9453V87.4344H7.84717V85.9453H9.35557Z" fill="#4B21E2"/>
<path d="M27.4572 47.2027H25.9487V45.7137H27.4572V47.2027Z" fill="#4B21E2"/>
<path d="M12.3726 47.2033V45.8828H13.881V47.3438L12.3726 47.2033Z" fill="#4B21E2"/>
<path d="M50.1116 43.4941V44.955H48.5747V43.4941H50.1116Z" fill="#4B21E2"/>
<path d="M74.9853 36.7793V38.2684H73.4768V36.7793H74.9853Z" fill="#4B21E2"/>
<path d="M54.6078 32.3126V33.7735H53.1279V32.3126H54.6078Z" fill="#4B21E2"/>
<path d="M70.4608 70.2969V71.7858H68.9524V70.2969H70.4608Z" fill="#4B21E2"/>
<path d="M64.4265 33.7736V32.3408H65.9064V33.7736H64.4265Z" fill="#4B21E2"/>
<path d="M43.3088 34.6444V36.1054H41.8005V34.6444H43.3088Z" fill="#4B21E2"/>
<path d="M52.3311 44.955H50.8511V43.4941H52.3311V44.955Z" fill="#4B21E2"/>
<path d="M80.2791 36.0211V34.6444H81.7589V36.1054L80.2791 36.0211Z" fill="#4B21E2"/>
<path d="M4.80196 38.2684H3.32202V36.7793H4.80196V38.2684Z" fill="#4B21E2"/>
<path d="M41.8005 60.6046V59.1436H43.2804V60.6046H41.8005Z" fill="#4B21E2"/>
<path d="M79.5393 20.4002H78.0879V18.9111H79.5393V20.4002Z" fill="#4B21E2"/>
<path d="M14.6213 38.2409V36.752H15.902C15.9666 36.7712 16.0246 36.8076 16.0698 36.8571C16.1149 36.9067 16.1456 36.9675 16.1582 37.0329C16.1582 37.4262 16.1582 37.7913 16.1582 38.2128L14.6213 38.2409Z" fill="#4B21E2"/>
<path d="M54.6078 36.7793V38.2684H53.1279V36.7793H54.6078Z" fill="#4B21E2"/>
<path d="M81.7589 54.6758V56.1366H80.2791V54.6758H81.7589Z" fill="#4B21E2"/>
<path d="M9.35557 82.9397H7.84717V81.4786H9.35557V82.9397Z" fill="#4B21E2"/>
<path d="M20.6828 81.4786V82.9397H19.1746V81.4786H20.6828Z" fill="#4B21E2"/>
<path d="M64.4265 36.7793H65.9064V38.2682H64.4265V36.7793Z" fill="#4B21E2"/>
<path d="M66.7036 44.955V43.4941H68.155V44.955H66.7036Z" fill="#4B21E2"/>
<path d="M5.54199 44.955V43.4941H7.02193V44.955H5.54199Z" fill="#4B21E2"/>
<path d="M34.2587 9.97656V11.4375H32.7502V9.97656H34.2587Z" fill="#4B21E2"/>
<path d="M4.80194 49.4228H3.32202V47.9619H4.80194V49.4228Z" fill="#4B21E2"/>
<path d="M78.031 45.7137H79.5393V47.2028H78.0594L78.031 45.7137Z" fill="#4B21E2"/>
<path d="M64.4553 45.8828H65.9353V47.3158H64.4553V45.8828Z" fill="#4B21E2"/>
<path d="M75.7539 83.6982H77.2339V85.2154H75.7539V83.6982Z" fill="#4B21E2"/>
<path d="M78.031 83.6982H79.5393V85.2154H78.0594L78.031 83.6982Z" fill="#4B21E2"/>
<path d="M56.7705 7.75769V9.35909H55.3191V7.89816L56.7705 7.75769Z" fill="#4B21E2"/>
<path d="M53.1279 7.72961H54.6078V9.35911H53.1279V7.72961Z" fill="#4B21E2"/>
<path d="M54.5794 47.2033H53.1279V45.8828H54.5794V47.2033Z" fill="#4B21E2"/>
<path d="M20.6544 47.2032H19.1746V45.8827H20.6544V47.2032Z" fill="#4B21E2"/>
<path d="M31.9534 44.9552H30.502V43.4941H31.9534V44.9552Z" fill="#4B21E2"/>
<path d="M70.4608 34.6444V36.1053H68.9524V34.6444H70.4608Z" fill="#4B21E2"/>
<path d="M61.7232 58.7221H59.6172V56.5588H61.7518L61.7232 58.7221Z" fill="#4B21E2"/>
<path d="M20.9393 67.6558H14.2795V61.0535H20.9393V67.6558Z" fill="#4B21E2"/>
<path d="M20.9681 11.8877V18.4619H14.3083V11.8877H20.9681Z" fill="#4B21E2"/>
<path d="M70.8013 11.8877V18.4618H64.1416V11.8877H70.8013Z" fill="#4B21E2"/>
</svg>
